<svg width="89" height="89" viewBox="0 0 89 89" fill="none" xmlns="http://www.w3.org/2000/svg">
<path d="M36.8053 78.3386L27.6272 61.2802L10.5688 52.1021L17.1511 45.6125L30.5938 47.9303L40.0501 38.474L10.6616 25.9584L18.4491 17.9855L54.1418 24.2896L65.6376 12.7938C67.0591 11.3723 68.8206 10.6615 70.922 10.6615C73.0234 10.6615 74.7848 11.3723 76.2063 12.7938C77.6279 14.2153 78.3386 15.9607 78.3386 18.03C78.3386 20.0992 77.6279 21.8458 76.2063 23.2698L64.6178 34.8584L70.922 70.4584L63.0418 78.3386L50.4334 48.95L40.9772 58.4063L43.3876 71.7563L36.8053 78.3386Z" fill="white"/>
</svg>
