<svg width="56" height="56" viewBox="0 0 56 56" fill="none" xmlns="http://www.w3.org/2000/svg">
<path d="M16.2106 32.4212C17.5847 32.4212 18.9279 32.8287 20.0704 33.5921C21.2129 34.3554 22.1033 35.4405 22.6292 36.71C23.155 37.9794 23.2926 39.3763 23.0245 40.724C22.7565 42.0716 22.0948 43.3096 21.1232 44.2812C20.1516 45.2528 18.9136 45.9145 17.566 46.1825C16.2183 46.4506 14.8214 46.313 13.552 45.7872C12.2825 45.2613 11.1974 44.3709 10.4341 43.2284C9.67066 42.0859 9.2632 40.7427 9.2632 39.3686L9.27478 38.961C9.37874 37.192 10.1548 35.5296 11.4441 34.3139C12.7334 33.0982 14.4385 32.4211 16.2106 32.4212ZM41.6844 32.4212C43.0585 32.4212 44.4017 32.8287 45.5442 33.5921C46.6867 34.3554 47.5772 35.4405 48.103 36.71C48.6288 37.9794 48.7664 39.3763 48.4984 40.724C48.2303 42.0716 47.5686 43.3096 46.597 44.2812C45.6254 45.2528 44.3875 45.9145 43.0398 46.1825C41.6921 46.4506 40.2953 46.313 39.0258 45.7872C37.7563 45.2613 36.6713 44.3709 35.9079 43.2284C35.1445 42.0859 34.737 40.7427 34.737 39.3686L34.7486 38.961C34.8526 37.192 35.6286 35.5296 36.9179 34.3139C38.2072 33.0982 39.9124 32.4211 41.6844 32.4212ZM16.2106 37.0528C15.5964 37.0528 15.0074 37.2968 14.5731 37.7311C14.1388 38.1654 13.8948 38.7544 13.8948 39.3686C13.8948 39.9828 14.1388 40.5718 14.5731 41.0061C15.0074 41.4404 15.5964 41.6844 16.2106 41.6844C16.8248 41.6844 17.4138 41.4404 17.8481 41.0061C18.2824 40.5718 18.5264 39.9828 18.5264 39.3686C18.5264 38.7544 18.2824 38.1654 17.8481 37.7311C17.4138 37.2968 16.8248 37.0528 16.2106 37.0528ZM41.6844 37.0528C41.0703 37.0528 40.4812 37.2968 40.0469 37.7311C39.6126 38.1654 39.3686 38.7544 39.3686 39.3686C39.3686 39.9828 39.6126 40.5718 40.0469 41.0061C40.4812 41.4404 41.0703 41.6844 41.6844 41.6844C42.2986 41.6844 42.8877 41.4404 43.322 41.0061C43.7563 40.5718 44.0002 39.9828 44.0002 39.3686C44.0002 38.7544 43.7563 38.1654 43.322 37.7311C42.8877 37.2968 42.2986 37.0528 41.6844 37.0528ZM33.4356 9.26318C34.9846 9.26335 36.4892 9.78124 37.7102 10.7346C38.9313 11.6879 39.7986 13.0219 40.1745 14.5247L41.1773 18.5264H46.316C48.0881 18.5263 49.7933 19.2034 51.0826 20.4191C52.3719 21.6348 53.1479 23.2972 53.2519 25.0662L53.2635 25.4738V32.4675L53.2403 32.7385C53.1719 33.2431 52.9391 33.7111 52.578 34.0701L52.3302 34.2808L52.1681 34.3943L51.9921 34.4915L51.7466 34.5981L51.7072 34.6096L51.5984 34.6467L51.3483 34.7046L51.075 34.7347L50.8898 34.7393L50.6072 34.7115L50.2645 34.6351L50.1186 34.5842C49.8018 34.4626 49.5156 34.2728 49.2803 34.0284L49.095 33.8107C48.2322 32.6602 47.1133 31.7265 45.8271 31.0833C44.5408 30.4402 43.1225 30.1054 41.6844 30.1054C40.2464 30.1054 38.8281 30.4402 37.5418 31.0833C36.2556 31.7265 35.1367 32.6602 34.2739 33.8107C34.0582 34.0983 33.7784 34.3317 33.4569 34.4925C33.1353 34.6533 32.7807 34.737 32.4212 34.737H25.4738C25.1143 34.737 24.7597 34.6533 24.4382 34.4925C24.1166 34.3317 23.8369 34.0983 23.6212 33.8107C22.7586 32.6588 21.6395 31.7238 20.3525 31.0799C19.0655 30.4361 17.6462 30.1011 16.2071 30.1015C14.7681 30.102 13.349 30.4379 12.0624 31.0825C10.7758 31.7272 9.65723 32.6629 8.79541 33.8153C8.61325 34.0589 8.38488 34.2642 8.12337 34.4196C7.86185 34.5749 7.57229 34.6772 7.27123 34.7207C6.97017 34.7641 6.66351 34.7478 6.36874 34.6728C6.07398 34.5977 5.79688 34.4653 5.55329 34.2831C5.30969 34.1009 5.10436 33.8726 4.94902 33.6111C4.79368 33.3495 4.69136 33.06 4.64793 32.7589C4.60449 32.4579 4.62077 32.1512 4.69585 31.8564C4.77093 31.5617 4.90333 31.2846 5.0855 31.041C6.22719 29.5126 7.65604 28.262 9.2632 27.3311V20.8654C9.26079 20.589 9.30785 20.3145 9.40215 20.0548L9.49942 19.8232L14.1403 10.5438C14.3325 10.1592 14.6279 9.8357 14.9936 9.60952C15.3593 9.38333 15.7807 9.26341 16.2106 9.26318H33.4356ZM4.6316 13.8948C5.24579 13.8948 5.83482 14.1388 6.26912 14.5731C6.70342 15.0074 6.9474 15.5964 6.9474 16.2106V25.4738C6.9474 26.088 6.70342 26.677 6.26912 27.1113C5.83482 27.5456 5.24579 27.7896 4.6316 27.7896C4.01741 27.7896 3.42838 27.5456 2.99408 27.1113C2.55978 26.677 2.3158 26.088 2.3158 25.4738V16.2106C2.3158 15.5964 2.55978 15.0074 2.99408 14.5731C3.42838 14.1388 4.01741 13.8948 4.6316 13.8948ZM33.4356 13.8948H25.4738V18.5264H36.3998L35.6819 15.6478C35.5564 15.1471 35.2672 14.7026 34.8602 14.3849C34.4533 14.0673 33.9518 13.8948 33.4356 13.8948ZM20.8422 13.8948H17.6418L15.3237 18.5264H20.8422V13.8948Z" fill="white"/>
</svg>
