<svg width="17" height="17" viewBox="0 0 17 17" fill="none" xmlns="http://www.w3.org/2000/svg">
<path d="M14.9027 0.839165C15.3787 0.839165 15.8351 1.02823 16.1716 1.36476C16.5082 1.70129 16.6972 2.15772 16.6972 2.63365V15.195C16.6972 15.671 16.5082 16.1274 16.1716 16.4639C15.8351 16.8004 15.3787 16.9895 14.9027 16.9895H2.34136C1.86543 16.9895 1.409 16.8004 1.07247 16.4639C0.735936 16.1274 0.546875 15.671 0.546875 15.195V2.63365C0.546875 2.15772 0.735936 1.70129 1.07247 1.36476C1.409 1.02823 1.86543 0.839165 2.34136 0.839165H14.9027ZM14.4541 14.7464V9.99103C14.4541 9.21527 14.1459 8.47128 13.5974 7.92274C13.0489 7.37419 12.3049 7.06602 11.5291 7.06602C10.7665 7.06602 9.87819 7.53259 9.44751 8.23243V7.2365H6.94421V14.7464H9.44751V10.323C9.44751 9.63213 10.0038 9.06687 10.6947 9.06687C11.0278 9.06687 11.3473 9.19921 11.5829 9.43478C11.8185 9.67035 11.9508 9.98986 11.9508 10.323V14.7464H14.4541ZM4.02817 5.82783C4.42795 5.82783 4.81135 5.66902 5.09404 5.38633C5.37673 5.10364 5.53554 4.72024 5.53554 4.32046C5.53554 3.48603 4.86261 2.80412 4.02817 2.80412C3.62601 2.80412 3.24033 2.96388 2.95596 3.24825C2.67159 3.53262 2.51183 3.9183 2.51183 4.32046C2.51183 5.1549 3.19374 5.82783 4.02817 5.82783ZM5.27534 14.7464V7.2365H2.78998V14.7464H5.27534Z" fill="white"/>
</svg>
