<svg width="17" height="17" viewBox="0 0 17 17" fill="none" xmlns="http://www.w3.org/2000/svg">
<path fill-rule="evenodd" clip-rule="evenodd" d="M8.29837 0.839164C12.7034 0.835506 16.3759 4.51641 16.3759 8.91423C16.3759 13.3157 12.7034 16.9856 8.29837 16.9832C7.14059 16.9853 5.99599 16.7375 4.94277 16.2565L0.944812 16.9795C0.838687 16.999 0.729305 16.9899 0.627841 16.9532C0.526377 16.9165 0.436469 16.8535 0.367302 16.7707C0.298135 16.6879 0.252189 16.5882 0.234157 16.4818C0.216126 16.3754 0.226657 16.2661 0.264673 16.1651L1.41043 13.1194C0.638348 11.8522 0.229343 10.397 0.228106 8.91301C0.229325 4.51519 3.89818 0.841602 8.29837 0.839164ZM12.3512 12.344C11.4528 13.0706 10.0621 13.8046 8.73229 12.9512C6.98928 11.8307 5.44617 10.359 4.32723 8.6143C3.67025 7.59257 4.28822 5.95634 5.21214 4.959C5.58024 4.5603 6.18725 4.6237 6.58827 4.98948L7.43174 5.76004C7.6877 5.99414 7.69745 6.40136 7.53778 6.71105C7.28547 7.19631 7.13676 7.84861 7.4488 8.33509C7.84128 8.94471 8.32396 9.5458 9.47703 9.89572C9.82563 10.003 10.273 9.95669 10.6533 9.80306C10.9714 9.67382 11.3748 9.67504 11.6101 9.9262L12.395 10.7614C12.8278 11.2223 12.8424 11.9465 12.3512 12.344Z" fill="white"/>
</svg>
