<svg width="18" height="17" viewBox="0 0 18 17" fill="none" xmlns="http://www.w3.org/2000/svg">
<g clip-path="url(#clip0_439_188)">
<path d="M8.96148 6.1947C8.25491 6.1947 7.57728 6.48123 7.07766 6.99126C6.57805 7.50129 6.29736 8.19303 6.29736 8.91432C6.29736 9.63561 6.57805 10.3274 7.07766 10.8374C7.57728 11.3474 8.25491 11.6339 8.96148 11.6339C9.66804 11.6339 10.3457 11.3474 10.8453 10.8374C11.3449 10.3274 11.6256 9.63561 11.6256 8.91432C11.6256 8.19303 11.3449 7.50129 10.8453 6.99126C10.3457 6.48123 9.66804 6.1947 8.96148 6.1947Z" fill="white"/>
<path fill-rule="evenodd" clip-rule="evenodd" d="M5.76513 0.755373C4.49331 0.755373 3.27358 1.27113 2.37427 2.18918C1.47496 3.10723 0.969727 4.35237 0.969727 5.65069L0.969727 12.1778C0.969727 13.4761 1.47496 14.7212 2.37427 15.6393C3.27358 16.5574 4.49331 17.0731 5.76513 17.0731H12.159C13.4308 17.0731 14.6505 16.5574 15.5499 15.6393C16.4492 14.7212 16.9544 13.4761 16.9544 12.1778V5.65069C16.9544 4.35237 16.4492 3.10723 15.5499 2.18918C14.6505 1.27113 13.4308 0.755373 12.159 0.755373L5.76513 0.755373ZM5.23231 8.91424C5.23231 7.90444 5.62526 6.93599 6.32473 6.22195C7.02419 5.50791 7.97287 5.10677 8.96206 5.10677C9.95126 5.10677 10.8999 5.50791 11.5994 6.22195C12.2989 6.93599 12.6918 7.90444 12.6918 8.91424C12.6918 9.92404 12.2989 10.8925 11.5994 11.6065C10.8999 12.3206 9.95126 12.7217 8.96206 12.7217C7.97287 12.7217 7.02419 12.3206 6.32473 11.6065C5.62526 10.8925 5.23231 9.92404 5.23231 8.91424ZM12.6918 5.10677H13.7575V4.01892H12.6918V5.10677Z" fill="white"/>
</g>
<defs>
<clipPath id="clip0_439_188">
<rect width="16.1503" height="16.1503" fill="white" transform="translate(0.885742 0.839161)"/>
</clipPath>
</defs>
</svg>
