<svg width="18" height="17" viewBox="0 0 18 17" fill="none" xmlns="http://www.w3.org/2000/svg">
<path d="M6.82757 0.839979C6.97996 0.839937 7.12957 0.880864 7.26072 0.958477C7.39186 1.03609 7.49974 1.14753 7.57304 1.28114L7.61639 1.37464L9.31642 5.62473C9.38489 5.79572 9.39597 5.98433 9.34799 6.16215C9.30001 6.33998 9.19556 6.49742 9.05037 6.61075L8.96537 6.66856L7.54244 7.52197L7.59599 7.60953C8.27325 8.68479 9.18298 9.59452 10.2582 10.2718L10.3449 10.3245L11.1992 8.90325C11.2939 8.74522 11.4373 8.62222 11.608 8.55277C11.7786 8.48333 11.9672 8.47119 12.1453 8.51819L12.243 8.55135L16.4931 10.2514C16.6346 10.3078 16.7584 10.4013 16.8514 10.522C16.9444 10.6427 17.0033 10.7861 17.0218 10.9373L17.0278 11.0402V14.4403C17.0278 15.8488 15.8862 16.9903 14.4267 16.9886C7.13443 16.5458 1.32115 10.7325 0.877441 3.39003C0.877405 2.73959 1.12592 2.11372 1.57215 1.64047C2.01837 1.16723 2.62857 0.882389 3.27789 0.844229L3.4275 0.839979H6.82757Z" fill="white"/>
</svg>
