<svg width="909" height="963" viewBox="0 0 909 963" fill="none" xmlns="http://www.w3.org/2000/svg">
<rect x="16.9465" y="95.9719" width="23.4449" height="23.4449" transform="rotate(45 16.9465 95.9719)" stroke="#3E557D" stroke-width="0.520999"/>
<rect x="16.9465" y="112.644" width="23.4449" height="23.4449" transform="rotate(45 16.9465 112.644)" stroke="#3E557D" stroke-width="0.520999"/>
<rect x="16.9465" y="129.316" width="23.4449" height="23.4449" transform="rotate(45 16.9465 129.316)" stroke="#3E557D" stroke-width="0.520999"/>
<rect x="16.9464" y="494.014" width="23.4449" height="23.4449" transform="rotate(45 16.9464 494.014)" stroke="#3E557D" stroke-width="0.520999"/>
<rect x="16.9464" y="510.687" width="23.4449" height="23.4449" transform="rotate(45 16.9464 510.687)" stroke="#3E557D" stroke-width="0.520999"/>
<rect x="16.9464" y="527.358" width="23.4449" height="23.4449" transform="rotate(45 16.9464 527.358)" stroke="#3E557D" stroke-width="0.520999"/>
<rect x="16.9465" y="895.183" width="23.4449" height="23.4449" transform="rotate(45 16.9465 895.183)" stroke="#3E557D" stroke-width="0.520999"/>
<rect x="16.9465" y="911.856" width="23.4449" height="23.4449" transform="rotate(45 16.9465 911.856)" stroke="#3E557D" stroke-width="0.520999"/>
<rect x="16.9465" y="928.528" width="23.4449" height="23.4449" transform="rotate(45 16.9465 928.528)" stroke="#3E557D" stroke-width="0.520999"/>
<rect x="891.182" y="895.183" width="23.4449" height="23.4449" transform="rotate(45 891.182 895.183)" stroke="#3E557D" stroke-width="0.520999"/>
<rect x="891.182" y="911.856" width="23.4449" height="23.4449" transform="rotate(45 891.182 911.856)" stroke="#3E557D" stroke-width="0.520999"/>
<rect x="891.182" y="928.528" width="23.4449" height="23.4449" transform="rotate(45 891.182 928.528)" stroke="#3E557D" stroke-width="0.520999"/>
<rect x="890.661" y="95.9719" width="23.4449" height="23.4449" transform="rotate(45 890.661 95.9719)" stroke="#3E557D" stroke-width="0.520999"/>
<rect x="890.661" y="112.644" width="23.4449" height="23.4449" transform="rotate(45 890.661 112.644)" stroke="#3E557D" stroke-width="0.520999"/>
<rect x="890.661" y="129.316" width="23.4449" height="23.4449" transform="rotate(45 890.661 129.316)" stroke="#3E557D" stroke-width="0.520999"/>
<rect x="890.661" y="494.014" width="23.4449" height="23.4449" transform="rotate(45 890.661 494.014)" stroke="#3E557D" stroke-width="0.520999"/>
<rect x="890.661" y="510.687" width="23.4449" height="23.4449" transform="rotate(45 890.661 510.687)" stroke="#3E557D" stroke-width="0.520999"/>
<rect x="890.661" y="527.358" width="23.4449" height="23.4449" transform="rotate(45 890.661 527.358)" stroke="#3E557D" stroke-width="0.520999"/>
<path d="M890.647 184.955V465.773" stroke="#3E557D" stroke-opacity="0.17" stroke-width="0.520999"/>
<path d="M16.4114 187.82V468.639" stroke="#3E557D" stroke-opacity="0.17" stroke-width="0.520999"/>
<path d="M16.4114 588.989V869.807" stroke="#3E557D" stroke-opacity="0.17" stroke-width="0.520999"/>
<path d="M890.647 588.989V869.807" stroke="#3E557D" stroke-opacity="0.17" stroke-width="0.520999"/>
<path d="M17.1929 82.8395V0.782227H93.7797" stroke="#3E557D" stroke-opacity="0.36" stroke-width="0.520999"/>
<path d="M890.907 82.318V0.260742H814.321" stroke="#3E557D" stroke-opacity="0.36" stroke-width="0.520999"/>
</svg>
